<svg version="1.2" xmlns="http://www.w3.org/2000/svg" viewBox="0 0 1920 2275" width="1920" height="2275">
	<title>Path 908</title>
	<defs>
		<linearGradient id="g1" x1="2733.2" y1="460.9" x2="726.5" y2="705.4" gradientUnits="userSpaceOnUse">
			<stop offset="0" stop-color="#002a90"/>
			<stop offset=".1" stop-color="#062a90"/>
			<stop offset=".2" stop-color="#172b90"/>
			<stop offset=".3" stop-color="#282c90"/>
			<stop offset=".4" stop-color="#392d90"/>
			<stop offset=".5" stop-color="#4a2e90"/>
			<stop offset=".6" stop-color="#5b2f91"/>
			<stop offset=".7" stop-color="#6c3091"/>
			<stop offset=".8" stop-color="#7e3191"/>
			<stop offset=".9" stop-color="#8f3391"/>
			<stop offset="1" stop-color="#9e3491"/>
		</linearGradient>
	</defs>
	<style>
		.s0 { opacity: .7;fill: url(#g1) } 
	</style>
	<path id="Path 908" class="s0" d="m1918.7 617.1c0 274.5-152.6 427.8-315.6 511.9 170 87.6 315.6 260.6 315.6 527.5 0 339.3-274.1 615.3-610.9 615.3h-1307v-1027h233.7v791.7h1073.3c207.9-0.1 377.2-170.5 377.2-380 0-216.5-150-411.6-385.5-411.6-2.5 0-5.2 0-7.8 0v-0.1h-577.2v324.2h683.1v235.4h-916.8v-559.6h198.9 34.7v-235.4h-233.6v-510.5h916.8v235.4h-683.1v275.1h566.6c2.6 0 5.3 0.1 8 0.1 254.8 0 395.9-182.4 395.9-392.4 0-209.2-163.8-379.7-371.6-379.9h-1078.9v772.2h-233.7v-1007.5h1312.8c336.6 0.3 605.1 276.3 605.1 615.2z"/>
</svg>