<svg xmlns="http://www.w3.org/2000/svg" width="139.533" height="165.129" viewBox="0 0 139.533 165.129">
  <path id="Path_404" data-name="Path 404" d="M-.663,0h-95.51V73.295h17V17.121h78.5c15.117.016,27.03,12.414,27.03,27.637,0,15.271-10.265,28.541-28.8,28.541-.2,0-.389,0-.583,0H-44.25V53.279h49.7V36.158h-66.7V73.295h17V90.416h-17v40.709h66.7V114h-49.7V90.416h42v.011c.19,0,.38,0,.569,0,17.129,0,28.041,14.2,28.041,29.947A27.577,27.577,0,0,1-1.084,148.01H-79.17V90.415h-17v74.714H-1.084A44.655,44.655,0,0,0,43.36,120.37c0-19.417-10.59-32.006-22.957-38.379C32.261,75.877,43.36,64.721,43.36,44.758,43.36,20.1,23.83.026-.663,0" transform="translate(96.173)" fill="#fff"/>
</svg>
